<svg width="24" height="24" viewBox="0 0 24 24" fill="none" xmlns="http://www.w3.org/2000/svg">
  <g clip-path="url(#clip0)">
    <path d="M21.4972 14.214H21.592L21.6175 14.1227L24.1204 5.18881L24.1649 5.03009H24H20.4077L19.1132 1.03168L19.0747 0.91271L18.9558 0.95127L13.4407 2.73904L13.3213 2.77773L13.3605 2.89694L13.8555 4.4046L12.7309 1.03065L12.6917 0.913043L12.5737 0.95127L7.05864 2.73904L6.93928 2.77773L6.97843 2.89694L7.67885 5.03009H5.00049L4.41193 2.67579L4.41188 2.67556C4.09013 1.39884 2.97495 0.489693 1.68494 0.489693H6.10352e-05H-0.124939V0.614693V1.63835V1.76335H6.10352e-05H1.68494C2.39102 1.76335 3.00832 2.23327 3.19993 2.94838C3.19999 2.9486 3.20005 2.94882 3.20011 2.94904L5.88763 13.4659C5.33689 13.8933 4.97873 14.5631 4.97873 15.3233C4.97873 16.6168 6.05835 17.6964 7.35188 17.6964H21.1396H21.2646V17.5714V16.5478V16.4228H21.1396H7.35188C6.75512 16.4228 6.25239 15.9158 6.25239 15.3233C6.25242 14.7206 6.76034 14.214 7.35188 14.214H21.4972ZM14.8695 3.59843L18.2538 2.5008L19.0804 4.97623H15.3601L14.8695 3.59843ZM8.48748 3.59843L11.8718 2.5008L12.6984 4.97623H8.97804L8.48748 3.59843ZM5.31883 6.24993L22.508 6.24989L20.6382 12.9452H7.04225L5.31883 6.24993Z" fill="white" stroke="white" stroke-width="0.25"/>
    <path d="M8.40241 21.24V21.24C8.40244 21.8334 7.89888 22.2905 7.35191 22.2905C6.7585 22.2905 6.30141 21.7869 6.30141 21.24C6.30141 20.6466 6.80498 20.1895 7.35191 20.1895C7.94899 20.1895 8.40241 20.6429 8.40241 21.24ZM7.35191 18.9697C6.10737 18.9697 5.0816 19.9955 5.0816 21.24C5.0816 22.4845 6.10737 23.5103 7.35191 23.5103C8.6473 23.5103 9.62221 22.4827 9.62221 21.24C9.62225 19.9955 8.59648 18.9697 7.35191 18.9697Z" fill="white" stroke="white" stroke-width="0.25"/>
    <path d="M15.218 18.9697C13.9735 18.9697 12.9477 19.9955 12.9477 21.24C12.9477 22.4845 13.9735 23.5103 15.218 23.5103C16.4625 23.5103 17.4883 22.4845 17.4883 21.24C17.4883 19.9955 16.4625 18.9697 15.218 18.9697ZM15.218 22.2905C14.6246 22.2905 14.1675 21.7869 14.1675 21.24C14.1675 20.6466 14.6711 20.1895 15.218 20.1895C15.7649 20.1895 16.2685 20.6466 16.2685 21.24C16.2685 21.8334 15.7649 22.2905 15.218 22.2905Z" fill="white" stroke="white" stroke-width="0.25"/>
  </g>
  <defs>
    <clipPath id="clip0">
      <rect width="24" height="24" fill="white" transform="matrix(-1 0 0 1 24 0)"/>
    </clipPath>
  </defs>
</svg>
