<svg width="24" height="24" viewBox="0 0 24 24" fill="none" xmlns="http://www.w3.org/2000/svg">
  <g clip-path="url(#clip0)">
    <path d="M16.2725 7.77459V7.77458C16.271 5.96473 14.8027 4.49863 12.9928 4.50006C11.1829 4.5015 9.71683 5.96985 9.71826 7.77977C9.71895 8.64732 10.0636 9.47917 10.6767 10.093C11.292 10.7091 12.1272 11.055 12.998 11.0543C14.8079 11.0529 16.2739 9.58451 16.2725 7.77459ZM11.5469 9.22276L11.5469 9.22276C11.1611 8.83755 10.9445 8.31476 10.9446 7.76966L10.9446 7.76933C10.944 7.22544 11.1599 6.70371 11.5448 6.31944L11.545 6.3192C12.3463 5.51689 13.6463 5.51605 14.4486 6.31734C15.2509 7.11864 15.2517 8.4186 14.4504 9.22091C13.6491 10.0232 12.3492 10.0241 11.5469 9.22276Z" fill="white" stroke="white" stroke-width="0.5"/>
    <path d="M14.7055 11.4574H11.2899C8.92272 11.4574 7.00372 13.3764 7.00372 15.7435V18.0568C7.00372 18.3968 7.27943 18.6725 7.6195 18.6725H18.3759C18.7159 18.6725 18.9916 18.3968 18.9916 18.0568V15.7435C18.9916 13.3764 17.0726 11.4574 14.7055 11.4574ZM17.7601 17.4435H8.2378V15.7439C8.24313 14.0589 9.6078 12.6943 11.2928 12.6889H14.7051C16.3901 12.6943 17.7548 14.059 17.7601 15.744C17.7601 15.7441 17.7601 15.7442 17.7601 15.7443L17.7601 17.4435Z" fill="white" stroke="white" stroke-width="0.5"/>
    <path d="M4.663 23.271H21.3273C21.8096 23.2682 22.1999 22.8779 22.2026 22.3956L4.663 23.271ZM4.663 23.271C4.43168 23.2721 4.20944 23.1814 4.04496 23.0187L4.663 23.271ZM2.80611 1.6069V3.4002L2.43807 3.4002L2.43761 3.4002C1.53978 3.40184 0.812369 4.12925 0.81073 5.02708V5.02754L0.81073 5.11835L0.81073 5.11881C0.812369 6.01665 1.53978 6.74405 2.43761 6.74569H2.43807H2.80106V10.3399H2.43807H2.43761C1.53978 10.3415 0.812369 11.0689 0.81073 11.9668V11.9672L0.81073 12.058L0.81073 12.0585C0.812369 12.9563 1.53978 13.6837 2.43761 13.6854H2.43807H2.80106V17.2795H2.43807H2.43761C1.53978 17.2812 0.812369 18.0086 0.81073 18.9064V18.9069V18.9977C0.81073 19.8966 1.53865 20.6259 2.43761 20.6275H2.43807H2.80106L2.80106 22.3956L2.80106 22.396C2.80186 22.8873 2.99786 23.3582 3.34588 23.7049C3.69267 24.0531 4.1636 24.2492 4.65502 24.25H4.65543H21.3323H21.3327C22.3574 24.2484 23.1876 23.4181 23.1892 22.3935V22.3931V1.60437V1.60415C23.1888 1.11267 22.9927 0.641606 22.6443 0.294983C22.2975 -0.0531362 21.8266 -0.249198 21.3353 -0.25H21.3349L4.663 -0.25L4.66261 -0.25C3.63796 -0.248397 2.80771 0.581856 2.80611 1.6065V1.6069ZM2.06751 5.02754L2.06751 5.02653C2.06668 4.82201 2.23167 4.65551 2.43614 4.65446H2.43615H2.43615H2.43616H2.43616H2.43617H2.43617H2.43618H2.43618H2.43619H2.43619H2.4362H2.4362H2.43621H2.43621H2.43622H2.43622H2.43623H2.43623H2.43624H2.43624H2.43624H2.43625H2.43625H2.43626H2.43626H2.43627H2.43627H2.43628H2.43628H2.43629H2.43629H2.4363H2.4363H2.43631H2.43631H2.43632H2.43632H2.43633H2.43633H2.43634H2.43634H2.43635H2.43635H2.43636H2.43636H2.43637H2.43637H2.43638H2.43638H2.43639H2.43639H2.4364H2.4364H2.43641H2.43641H2.43642H2.43642H2.43643H2.43643H2.43644H2.43644H2.43645H2.43645H2.43646H2.43646H2.43647H2.43647H2.43648H2.43648H2.43649H2.43649H2.4365H2.4365H2.43651H2.43651H2.43652H2.43652H2.43653H2.43653H2.43654H2.43654H2.43655H2.43655H2.43656H2.43656H2.43657H2.43657H2.43658H2.43658H2.43659H2.43659H2.4366H2.4366H2.43661H2.43661H2.43662H2.43662H2.43663H2.43663H2.43664H2.43664H2.43665H2.43665H2.43666H2.43666H2.43667H2.43667H2.43668H2.43668H2.43669H2.43669H2.4367H2.4367H2.43671H2.43671H2.43672H2.43672H2.43673H2.43673H2.43674H2.43674H2.43675H2.43675H2.43676H2.43676H2.43677H2.43677H2.43678H2.43678H2.43679H2.43679H2.4368H2.4368H2.43681H2.43681H2.43682H2.43682H2.43683H2.43683H2.43684H2.43684H2.43685H2.43685H2.43686H2.43686H2.43687H2.43687H2.43688H2.43688H2.43689H2.43689H2.4369H2.4369H2.43691H2.43691H2.43692H2.43692H2.43693H2.43693H2.43694H2.43694H2.43695H2.43695H2.43696H2.43696H2.43697H2.43697H2.43698H2.43698H2.43699H2.43699H2.437H2.437H2.43701H2.43701H2.43702H2.43702H2.43703H2.43703H2.43704H2.43704H2.43705H2.43705H2.43706H2.43706H2.43707H2.43707H2.43708H2.43708H2.43709H2.43709H2.4371H2.4371H2.43711H2.43711H2.43712H2.43712H2.43713H2.43713H2.43714H2.43714H2.43715H2.43715H2.43716H2.43716H2.43717H2.43717H2.43718H2.43718H2.43719H2.43719H2.4372H2.4372H2.43721H2.43721H2.43722H2.43722H2.43723H2.43723H2.43724H2.43724H2.43725H2.43725H2.43726H2.43726H2.43727H2.43727H2.43728H2.43728H2.43729H2.43729H2.4373H2.4373H2.43731H2.43731H2.43732H2.43732H2.43733H2.43733H2.43734H2.43734H2.43734H2.43735H2.43735H2.43736H2.43736H2.43737H2.43737H2.43738H2.43738H2.43739H2.43739H2.4374H2.4374H2.43741H2.43741H2.43742H2.43742H2.43743H2.43743H2.43744H2.43744H2.43745H2.43745H2.43746H2.43746H2.43747H2.43747H2.43748H2.43748H2.43749H2.43749H2.4375H2.4375H2.43751H2.43751H2.43752H2.43752H2.43753H2.43753H2.43754H2.43754H2.43755H2.43755H2.43756H2.43756H2.43757H2.43757H2.43758H2.43758H2.43759H2.43759H2.4376H2.4376H2.43761H2.43761H2.43762H2.43762H2.43763H2.43763H2.43764H2.43764H2.43765H2.43765H2.43766H2.43766H2.43767H2.43767H2.43768H2.43768H2.43769H2.43769H2.43769H2.4377H2.4377H2.43771H2.43771H2.43772H2.43772H2.43773H2.43773H2.43774H2.43774H2.43775H2.43775H2.43776H2.43776H2.43777H2.43777H2.43778H2.43778H2.43779H2.43779H2.4378H2.4378H2.43781H2.43781H2.43782H2.43782H2.43783H2.43783H2.43784H2.43784H2.43785H2.43785H2.43786H2.43786H2.43787H2.43787H2.43788H2.43788H2.43789H2.43789H2.43789H2.4379H2.4379H2.43791H2.43791H2.43792H2.43792H2.43793H2.43793H2.43794H2.43794H2.43795H2.43795H2.43796H2.43796H2.43797H2.43797H2.43798H2.43798H2.43799H2.43799H2.438H2.438H2.43801H2.43801H2.43802H2.43802H2.43803H2.43803H2.43804H2.43804H2.43804H2.43805H2.43805H2.43806H2.43806H2.43807H4.35777C4.56244 4.65446 4.72833 4.82038 4.72833 5.02502V5.11583C4.72833 5.3205 4.56241 5.48639 4.35777 5.48639H4.35744L2.43807 5.48891C2.43798 5.48891 2.4379 5.48891 2.43781 5.48891C2.2333 5.48877 2.06751 5.32289 2.06751 5.11835L2.06751 5.02754ZM2.06751 11.9697L2.06751 11.9687C2.06668 11.7642 2.23167 11.5977 2.43614 11.5966H2.43615H2.43616H2.43617H2.43618H2.43619H2.4362H2.43621H2.43622H2.43623H2.43624H2.43625H2.43626H2.43627H2.43628H2.43629H2.4363H2.43631H2.43632H2.43633H2.43634H2.43635H2.43636H2.43637H2.43638H2.43639H2.4364H2.43641H2.43642H2.43643H2.43644H2.43645H2.43646H2.43647H2.43648H2.43649H2.4365H2.43651H2.43652H2.43653H2.43654H2.43655H2.43656H2.43657H2.43658H2.43659H2.4366H2.43661H2.43662H2.43663H2.43664H2.43665H2.43666H2.43667H2.43668H2.43669H2.4367H2.43671H2.43672H2.43673H2.43674H2.43675H2.43676H2.43677H2.43678H2.43679H2.4368H2.43681H2.43682H2.43683H2.43684H2.43685H2.43686H2.43687H2.43688H2.43689H2.4369H2.43691H2.43692H2.43693H2.43694H2.43695H2.43696H2.43697H2.43698H2.43699H2.437H2.43701H2.43702H2.43703H2.43704H2.43705H2.43706H2.43707H2.43708H2.43709H2.4371H2.43711H2.43712H2.43713H2.43714H2.43715H2.43716H2.43717H2.43718H2.43719H2.4372H2.43721H2.43722H2.43723H2.43724H2.43725H2.43726H2.43727H2.43728H2.43729H2.4373H2.43731H2.43732H2.43733H2.43734H2.43734H2.43735H2.43736H2.43737H2.43738H2.43739H2.4374H2.43741H2.43742H2.43743H2.43744H2.43745H2.43746H2.43747H2.43748H2.43749H2.4375H2.43751H2.43752H2.43753H2.43754H2.43755H2.43756H2.43757H2.43758H2.43759H2.4376H2.43761H2.43762H2.43763H2.43764H2.43765H2.43766H2.43767H2.43768H2.43769H2.4377H2.43771H2.43772H2.43773H2.43774H2.43775H2.43776H2.43777H2.43778H2.43779H2.4378H2.43781H2.43782H2.43783H2.43784H2.43785H2.43786H2.43787H2.43788H2.43789H2.43789H2.4379H2.43791H2.43792H2.43793H2.43794H2.43795H2.43796H2.43797H2.43798H2.43799H2.438H2.43801H2.43802H2.43803H2.43804H2.43805H2.43806H2.43807H4.35777C4.56244 11.5966 4.72833 11.7626 4.72833 11.9672V12.058C4.72833 12.2626 4.56239 12.4286 4.35777 12.4286H4.35744L2.43807 12.4311C2.43798 12.4311 2.43789 12.4311 2.43781 12.4311C2.2333 12.431 2.06751 12.2651 2.06751 12.0605L2.06751 11.9697ZM2.06751 18.9094L2.06751 18.9084C2.06668 18.7039 2.23166 18.5374 2.43613 18.5363H2.43615H2.43616H2.43618H2.43619H2.43621H2.43622H2.43624H2.43625H2.43626H2.43628H2.43629H2.43631H2.43632H2.43634H2.43635H2.43637H2.43638H2.4364H2.43641H2.43643H2.43644H2.43646H2.43647H2.43649H2.4365H2.43652H2.43653L2.43656 18.5363L2.43656 18.5363H2.43658H2.43659H2.43661H2.43662H2.43664H2.43665H2.43667H2.43668H2.4367H2.43671H2.43673H2.43674H2.43676H2.43677H2.43679H2.4368H2.43682H2.43683H2.43685H2.43686H2.43688H2.43689H2.43691H2.43692H2.43694H2.43695H2.43697H2.43698H2.437H2.43701H2.43703H2.43704H2.43706H2.43707H2.43709H2.4371H2.43712H2.43713H2.43715H2.43716H2.43718H2.43719H2.43721H2.43722H2.43724H2.43725H2.43727H2.43728H2.4373H2.43731H2.43733H2.43734H2.43735H2.43737H2.43738H2.4374H2.43741H2.43743H2.43744H2.43746H2.43747H2.43749H2.4375H2.43752H2.43753H2.43755H2.43756H2.43758H2.43759H2.43761H2.43762H2.43764H2.43765H2.43767H2.43768H2.43769H2.43771H2.43772H2.43774H2.43775H2.43777H2.43778H2.4378H2.43781H2.43783H2.43784H2.43786H2.43787H2.43789H2.4379H2.43791H2.43793H2.43794H2.43796H2.43797H2.43799H2.438H2.43802H2.43803H2.43804H2.43806H4.35777C4.56244 18.5363 4.72833 18.7022 4.72833 18.9069V18.9977C4.72833 19.2024 4.56241 19.3682 4.35777 19.3682H4.35744L2.43807 19.3708C2.43798 19.3708 2.43789 19.3708 2.43781 19.3708C2.2333 19.3706 2.06751 19.2047 2.06751 19.0002L2.06751 18.9094ZM21.9577 1.60761L21.9526 22.3942C21.9526 22.3944 21.9526 22.3946 21.9526 22.3948C21.9503 22.7397 21.6714 23.0187 21.3265 23.021L4.663 23.021L4.66177 23.021C4.49723 23.0218 4.33909 22.9574 4.2218 22.842C4.10629 22.7247 4.04189 22.5665 4.0427 22.4019V22.4007V20.6326H4.37038H4.37084C5.26867 20.631 5.99608 19.9035 5.99772 19.0057V19.0053L5.99772 18.9144L5.99772 18.914C5.99608 18.0162 5.26867 17.2887 4.37084 17.2871H4.37038H4.03514V13.6854H4.36281H4.36327C5.2611 13.6837 5.98851 12.9563 5.99015 12.0585V12.058L5.99015 11.9672L5.99015 11.9668C5.98851 11.0689 5.2611 10.3415 4.36327 10.3399H4.36281H4.03514V6.74569L4.36281 6.74569L4.36327 6.74569C5.2611 6.74405 5.98851 6.01665 5.99015 5.11881V5.11835L5.99015 5.02754L5.99015 5.02708C5.98851 4.12925 5.2611 3.40184 4.36327 3.4002H4.36281H4.03514V1.60769C4.03747 1.26283 4.3164 0.983889 4.66126 0.981554H21.3319C21.677 0.982719 21.9564 1.26203 21.9577 1.60703C21.9577 1.60722 21.9577 1.60742 21.9577 1.60761Z" fill="white" stroke="white" stroke-width="0.5"/>
  </g>
  <defs>
    <clipPath id="clip0">
      <rect width="24" height="24" fill="white"/>
    </clipPath>
  </defs>
</svg>
