<svg width="17" height="17" viewBox="0 0 17 17" fill="none" xmlns="http://www.w3.org/2000/svg">
  <mask id="path-1-inside-1" fill="white">
    <path d="M16.8522 16.133L12.7209 12.0018C13.8291 10.7277 14.5 9.06541 14.5 7.24856C14.5 3.24922 11.2471 0 7.25149 0C3.25215 0 0.00292969 3.25299 0.00292969 7.24856C0.00292969 11.2441 3.25592 14.4971 7.25149 14.4971C9.06834 14.4971 10.7306 13.8262 12.0047 12.718L16.136 16.8492C16.234 16.9472 16.3659 17 16.4941 17C16.6222 17 16.7542 16.951 16.8522 16.8492C17.0482 16.6532 17.0482 16.329 16.8522 16.133ZM1.0169 7.24856C1.0169 3.81086 3.81379 1.01774 7.24772 1.01774C10.6854 1.01774 13.4785 3.81463 13.4785 7.24856C13.4785 10.6825 10.6854 13.4831 7.24772 13.4831C3.81379 13.4831 1.0169 10.6863 1.0169 7.24856Z"/>
  </mask>
  <path d="M16.8522 16.133L12.7209 12.0018C13.8291 10.7277 14.5 9.06541 14.5 7.24856C14.5 3.24922 11.2471 0 7.25149 0C3.25215 0 0.00292969 3.25299 0.00292969 7.24856C0.00292969 11.2441 3.25592 14.4971 7.25149 14.4971C9.06834 14.4971 10.7306 13.8262 12.0047 12.718L16.136 16.8492C16.234 16.9472 16.3659 17 16.4941 17C16.6222 17 16.7542 16.951 16.8522 16.8492C17.0482 16.6532 17.0482 16.329 16.8522 16.133ZM1.0169 7.24856C1.0169 3.81086 3.81379 1.01774 7.24772 1.01774C10.6854 1.01774 13.4785 3.81463 13.4785 7.24856C13.4785 10.6825 10.6854 13.4831 7.24772 13.4831C3.81379 13.4831 1.0169 10.6863 1.0169 7.24856Z" fill="#424242"/>
  <path d="M16.8522 16.133L15.4379 17.5473L16.8522 16.133ZM12.7209 12.0018L11.2119 10.6892L9.9875 12.0968L11.3067 13.416L12.7209 12.0018ZM12.0047 12.718L13.4189 11.3037L12.0997 9.98457L10.6921 11.2089L12.0047 12.718ZM16.136 16.8492L14.7218 18.2634L16.136 16.8492ZM16.8522 16.8492L15.4379 15.435L15.4246 15.4484L15.4115 15.4619L16.8522 16.8492ZM7.24772 13.4831V15.4831V13.4831ZM18.2664 14.7188L14.1351 10.5876L11.3067 13.416L15.4379 17.5473L18.2664 14.7188ZM14.2299 13.3144C15.6418 11.6912 16.5 9.5672 16.5 7.24856H12.5C12.5 8.56362 12.0164 9.76425 11.2119 10.6892L14.2299 13.3144ZM16.5 7.24856C16.5 2.14398 12.3509 -2 7.25149 -2V2C10.1432 2 12.5 4.35447 12.5 7.24856H16.5ZM7.25149 -2C2.14691 -2 -1.99707 2.1491 -1.99707 7.24856H2.00293C2.00293 4.35689 4.3574 2 7.25149 2V-2ZM-1.99707 7.24856C-1.99707 12.3487 2.15135 16.4971 7.25149 16.4971V12.4971C4.36049 12.4971 2.00293 10.1396 2.00293 7.24856H-1.99707ZM7.25149 16.4971C9.57013 16.4971 11.6941 15.6388 13.3173 14.227L10.6921 11.2089C9.76718 12.0135 8.56655 12.4971 7.25149 12.4971V16.4971ZM10.5905 14.1322L14.7218 18.2634L17.5502 15.435L13.4189 11.3037L10.5905 14.1322ZM14.7218 18.2634C15.1928 18.7345 15.8326 19 16.4941 19V15C16.8992 15 17.2752 15.16 17.5502 15.435L14.7218 18.2634ZM16.4941 19C17.1215 19 17.7881 18.7606 18.2928 18.2365L15.4115 15.4619C15.7202 15.1414 16.123 15 16.4941 15V19ZM18.2664 18.2634C19.2434 17.2864 19.2434 15.6959 18.2664 14.7188L15.4379 17.5473C14.8529 16.9622 14.8529 16.0201 15.4379 15.435L18.2664 18.2634ZM3.0169 7.24856C3.0169 4.91622 4.91758 3.01774 7.24772 3.01774V-0.982262C2.71001 -0.982262 -0.983101 2.70551 -0.983101 7.24856H3.0169ZM7.24772 3.01774C9.58006 3.01774 11.4785 4.91842 11.4785 7.24856H15.4785C15.4785 2.71085 11.7908 -0.982262 7.24772 -0.982262V3.01774ZM11.4785 7.24856C11.4785 9.58028 9.57848 11.4831 7.24772 11.4831V15.4831C11.7923 15.4831 15.4785 11.7847 15.4785 7.24856H11.4785ZM7.24772 11.4831C4.91915 11.4831 3.0169 9.58247 3.0169 7.24856H-0.983101C-0.983101 11.79 2.70844 15.4831 7.24772 15.4831V11.4831Z" fill="black" mask="url(#path-1-inside-1)"/>
</svg>
